<?xml version="1.0" encoding="UTF-8"?>
<svg xmlns="http://www.w3.org/2000/svg" width="1580" height="820" viewBox="0 0 1580 820">
  <defs>
    <marker id="arrow" markerWidth="12" markerHeight="12" refX="10" refY="6" orient="auto" markerUnits="strokeWidth">
      <path d="M2,2 L10,6 L2,10 Z" fill="#334155"/>
    </marker>
  </defs>
  <rect width="100%" height="100%" fill="#ffffff"/>
  <text x="790" y="46" text-anchor="middle" font-family="Inter, Arial, sans-serif" font-size="30" font-weight="900" fill="#0f172a"><tspan x="790" dy="0">Diagrama de Componentes</tspan></text>
  <rect x="70" y="250" width="240" height="120" rx="12" fill="#f8fafc" stroke="#94a3b8" stroke-width="2" /><text x="190" y="298" text-anchor="middle" font-family="Inter, Arial, sans-serif" font-size="18" font-weight="800" fill="#0f172a"><tspan x="190" dy="0">Usuario</tspan></text><text x="190" y="334" text-anchor="middle" font-family="Inter, Arial, sans-serif" font-size="14" font-weight="500" fill="#475569"><tspan x="190" dy="0">aluno, professor, parceiro</tspan></text><rect x="380" y="120" width="800" height="620" rx="18" fill="#ffffff" stroke="#2563eb" stroke-width="2" /><text x="402" y="150" text-anchor="start" font-family="Inter, Arial, sans-serif" font-size="20" font-weight="800" fill="#0f172a"><tspan x="402" dy="0">API Spring Boot</tspan></text><rect x="535" y="170" width="250" height="90" rx="12" fill="#dbeafe" stroke="#2563eb" stroke-width="2" /><text x="660" y="203" text-anchor="middle" font-family="Inter, Arial, sans-serif" font-size="18" font-weight="800" fill="#0f172a"><tspan x="660" dy="0">Controllers REST</tspan></text><text x="660" y="239" text-anchor="middle" font-family="Inter, Arial, sans-serif" font-size="14" font-weight="500" fill="#475569"><tspan x="660" dy="0">HTTP /api/v1</tspan></text><rect x="830" y="170" width="280" height="90" rx="12" fill="#ede9fe" stroke="#7c3aed" stroke-width="2" /><text x="970" y="203" text-anchor="middle" font-family="Inter, Arial, sans-serif" font-size="18" font-weight="800" fill="#0f172a"><tspan x="970" dy="0">Seguranca JWT</tspan></text><text x="970" y="239" text-anchor="middle" font-family="Inter, Arial, sans-serif" font-size="14" font-weight="500" fill="#475569"><tspan x="970" dy="0">autenticacao e perfis</tspan></text><rect x="535" y="310" width="280" height="100" rx="12" fill="#dcfce7" stroke="#16a34a" stroke-width="2" /><text x="675" y="348" text-anchor="middle" font-family="Inter, Arial, sans-serif" font-size="18" font-weight="800" fill="#0f172a"><tspan x="675" dy="0">Application</tspan></text><text x="675" y="384" text-anchor="middle" font-family="Inter, Arial, sans-serif" font-size="14" font-weight="500" fill="#475569"><tspan x="675" dy="0">fachadas e casos de uso</tspan></text><rect x="850" y="310" width="250" height="100" rx="12" fill="#fef3c7" stroke="#d97706" stroke-width="2" /><text x="975" y="348" text-anchor="middle" font-family="Inter, Arial, sans-serif" font-size="18" font-weight="800" fill="#0f172a"><tspan x="975" dy="0">Dominio</tspan></text><text x="975" y="384" text-anchor="middle" font-family="Inter, Arial, sans-serif" font-size="14" font-weight="500" fill="#475569"><tspan x="975" dy="0">modelos e portas</tspan></text><rect x="535" y="470" width="250" height="90" rx="12" fill="#fff" stroke="#334155" stroke-width="2" /><text x="660" y="503" text-anchor="middle" font-family="Inter, Arial, sans-serif" font-size="18" font-weight="800" fill="#0f172a"><tspan x="660" dy="0">Adaptadores JPA</tspan></text><text x="660" y="539" text-anchor="middle" font-family="Inter, Arial, sans-serif" font-size="14" font-weight="500" fill="#475569"><tspan x="660" dy="0">persistencia</tspan></text><rect x="850" y="470" width="260" height="90" rx="12" fill="#fff7ed" stroke="#ea580c" stroke-width="2" /><text x="980" y="503" text-anchor="middle" font-family="Inter, Arial, sans-serif" font-size="18" font-weight="800" fill="#0f172a"><tspan x="980" dy="0">Publisher RabbitMQ</tspan></text><text x="980" y="539" text-anchor="middle" font-family="Inter, Arial, sans-serif" font-size="14" font-weight="500" fill="#475569"><tspan x="980" dy="0">eventos apos commit</tspan></text><rect x="690" y="610" width="300" height="90" rx="12" fill="#ffe4e6" stroke="#e11d48" stroke-width="2" /><text x="840" y="643" text-anchor="middle" font-family="Inter, Arial, sans-serif" font-size="18" font-weight="800" fill="#0f172a"><tspan x="840" dy="0">Worker de notificacoes</tspan></text><text x="840" y="679" text-anchor="middle" font-family="Inter, Arial, sans-serif" font-size="14" font-weight="500" fill="#475569"><tspan x="840" dy="0">EmailJS e ZapSender</tspan></text><rect x="1010" y="610" width="150" height="90" rx="12" fill="#fef3c7" stroke="#d97706" stroke-width="2" /><text x="1085" y="643" text-anchor="middle" font-family="Inter, Arial, sans-serif" font-size="18" font-weight="800" fill="#0f172a"><tspan x="1085" dy="0">ZXing</tspan></text><text x="1085" y="679" text-anchor="middle" font-family="Inter, Arial, sans-serif" font-size="14" font-weight="500" fill="#475569"><tspan x="1085" dy="0">QR Code</tspan></text><line x1="785" y1="215" x2="830" y2="215" stroke="#334155" stroke-width="2"  marker-end="url(#arrow)"/><line x1="660" y1="260" x2="660" y2="310" stroke="#334155" stroke-width="2"  marker-end="url(#arrow)"/><line x1="675" y1="410" x2="660" y2="470" stroke="#334155" stroke-width="2"  marker-end="url(#arrow)"/><line x1="815" y1="360" x2="850" y2="360" stroke="#334155" stroke-width="2"  marker-end="url(#arrow)"/><line x1="815" y1="360" x2="1010" y2="655" stroke="#334155" stroke-width="2"  marker-end="url(#arrow)"/><rect x="794.5" y="484.5" width="236" height="28" rx="8" fill="#fff" opacity="0.92"/><text x="912.5" y="503.5" text-anchor="middle" font-family="Inter, Arial, sans-serif" font-size="14" font-weight="500" fill="#0f172a"><tspan x="912.5" dy="0">gera QR</tspan></text><line x1="980" y1="410" x2="980" y2="470" stroke="#334155" stroke-width="2"  marker-end="url(#arrow)"/><line x1="980" y1="560" x2="850" y2="610" stroke="#334155" stroke-width="2"  marker-end="url(#arrow)"/><rect x="80" y="500" width="220" height="100" rx="12" fill="#dbeafe" stroke="#2563eb" stroke-width="2" /><text x="190" y="538" text-anchor="middle" font-family="Inter, Arial, sans-serif" font-size="18" font-weight="800" fill="#0f172a"><tspan x="190" dy="0">SPA React/Vite</tspan></text><text x="190" y="574" text-anchor="middle" font-family="Inter, Arial, sans-serif" font-size="14" font-weight="500" fill="#475569"><tspan x="190" dy="0">rotas e fachadas</tspan></text><rect x="1260" y="170" width="250" height="100" rx="12" fill="#dcfce7" stroke="#16a34a" stroke-width="2" /><text x="1385" y="208" text-anchor="middle" font-family="Inter, Arial, sans-serif" font-size="18" font-weight="800" fill="#0f172a"><tspan x="1385" dy="0">PostgreSQL</tspan></text><text x="1385" y="244" text-anchor="middle" font-family="Inter, Arial, sans-serif" font-size="14" font-weight="500" fill="#475569"><tspan x="1385" dy="0">Flyway + JPA</tspan></text><rect x="1260" y="350" width="250" height="100" rx="12" fill="#fff7ed" stroke="#ea580c" stroke-width="2" /><text x="1385" y="388" text-anchor="middle" font-family="Inter, Arial, sans-serif" font-size="18" font-weight="800" fill="#0f172a"><tspan x="1385" dy="0">RabbitMQ</tspan></text><text x="1385" y="424" text-anchor="middle" font-family="Inter, Arial, sans-serif" font-size="14" font-weight="500" fill="#475569"><tspan x="1385" dy="0">fila de notificacoes</tspan></text><rect x="1260" y="530" width="250" height="90" rx="12" fill="#ede9fe" stroke="#7c3aed" stroke-width="2" /><text x="1385" y="563" text-anchor="middle" font-family="Inter, Arial, sans-serif" font-size="18" font-weight="800" fill="#0f172a"><tspan x="1385" dy="0">EmailJS</tspan></text><text x="1385" y="599" text-anchor="middle" font-family="Inter, Arial, sans-serif" font-size="14" font-weight="500" fill="#475569"><tspan x="1385" dy="0">envio de e-mail</tspan></text><rect x="1260" y="650" width="250" height="90" rx="12" fill="#ffe4e6" stroke="#e11d48" stroke-width="2" /><text x="1385" y="683" text-anchor="middle" font-family="Inter, Arial, sans-serif" font-size="18" font-weight="800" fill="#0f172a"><tspan x="1385" dy="0">ZapSender</tspan></text><text x="1385" y="719" text-anchor="middle" font-family="Inter, Arial, sans-serif" font-size="14" font-weight="500" fill="#475569"><tspan x="1385" dy="0">WhatsApp</tspan></text><line x1="190" y1="370" x2="190" y2="500" stroke="#334155" stroke-width="2"  marker-end="url(#arrow)"/><rect x="72" y="412" width="236" height="28" rx="8" fill="#fff" opacity="0.92"/><text x="190" y="431" text-anchor="middle" font-family="Inter, Arial, sans-serif" font-size="14" font-weight="500" fill="#0f172a"><tspan x="190" dy="0">usa</tspan></text><line x1="300" y1="550" x2="535" y2="215" stroke="#334155" stroke-width="2"  marker-end="url(#arrow)"/><rect x="299.5" y="359.5" width="236" height="28" rx="8" fill="#fff" opacity="0.92"/><text x="417.5" y="378.5" text-anchor="middle" font-family="Inter, Arial, sans-serif" font-size="14" font-weight="500" fill="#0f172a"><tspan x="417.5" dy="0">HTTP</tspan></text><line x1="785" y1="515" x2="1260" y2="220" stroke="#334155" stroke-width="2"  marker-end="url(#arrow)"/><rect x="904.5" y="344.5" width="236" height="28" rx="8" fill="#fff" opacity="0.92"/><text x="1022.5" y="363.5" text-anchor="middle" font-family="Inter, Arial, sans-serif" font-size="14" font-weight="500" fill="#0f172a"><tspan x="1022.5" dy="0">JDBC</tspan></text><line x1="1110" y1="515" x2="1260" y2="400" stroke="#334155" stroke-width="2"  marker-end="url(#arrow)"/><rect x="1067" y="434.5" width="236" height="28" rx="8" fill="#fff" opacity="0.92"/><text x="1185" y="453.5" text-anchor="middle" font-family="Inter, Arial, sans-serif" font-size="14" font-weight="500" fill="#0f172a"><tspan x="1185" dy="0">AMQP</tspan></text><line x1="990" y1="655" x2="1260" y2="575" stroke="#334155" stroke-width="2"  marker-end="url(#arrow)"/><rect x="1007" y="592" width="236" height="28" rx="8" fill="#fff" opacity="0.92"/><text x="1125" y="611" text-anchor="middle" font-family="Inter, Arial, sans-serif" font-size="14" font-weight="500" fill="#0f172a"><tspan x="1125" dy="0">REST</tspan></text><line x1="990" y1="655" x2="1260" y2="695" stroke="#334155" stroke-width="2"  marker-end="url(#arrow)"/><rect x="1007" y="652" width="236" height="28" rx="8" fill="#fff" opacity="0.92"/><text x="1125" y="671" text-anchor="middle" font-family="Inter, Arial, sans-serif" font-size="14" font-weight="500" fill="#0f172a"><tspan x="1125" dy="0">REST</tspan></text>
</svg>